<svg width="34" height="34" viewBox="0 0 34 34" fill="none" xmlns="http://www.w3.org/2000/svg">
<path d="M21.2105 9.42105H21.2274M17 31.3158H6.05263C4.71259 31.3158 3.42743 30.7835 2.47988 29.8359C1.53233 28.8884 1 27.6032 1 26.2632V6.05263C1 4.71259 1.53233 3.42743 2.47988 2.47988C3.42743 1.53233 4.71259 1 6.05263 1H26.2632C27.6032 1 28.8884 1.53233 29.8359 2.47988C30.7835 3.42743 31.3158 4.71259 31.3158 6.05263V17M1 22.8949L9.42105 14.4738C10.984 12.9698 12.9107 12.9698 14.4737 14.4738L21.2105 21.2106M19.5263 19.5263L21.2105 17.842C22.3389 16.7574 23.6526 16.4543 24.8855 16.9326M22.8947 27.9474H33M27.9474 22.8947V33" stroke="#00A481" stroke-width="2" stroke-linecap="round" stroke-linejoin="round"/>
</svg>
