<svg width="28" height="34" viewBox="0 0 28 34" fill="none" xmlns="http://www.w3.org/2000/svg">
<path d="M17.5557 1V8.11111C17.5557 8.58261 17.743 9.03479 18.0764 9.36819C18.4098 9.70159 18.8619 9.88889 19.3334 9.88889H26.4445M17.5557 1H5.11122C4.16823 1 3.26386 1.3746 2.59706 2.0414C1.93027 2.70819 1.55566 3.61256 1.55566 4.55556V29.4444C1.55566 30.3874 1.93027 31.2918 2.59706 31.9586C3.26386 32.6254 4.16823 33 5.11122 33H22.889C23.832 33 24.7364 32.6254 25.4032 31.9586C26.0699 31.2918 26.4445 30.3874 26.4445 29.4444V9.88889M17.5557 1L26.4445 9.88889M14.0001 15.2222V25.8889M8.66677 20.5556H19.3334" stroke="#00A481" stroke-width="1.5" stroke-linecap="round" stroke-linejoin="round"/>
</svg>
