<svg width="18" height="19" viewBox="0 0 18 19" fill="none" xmlns="http://www.w3.org/2000/svg">
<path d="M12.4271 14.0312V15.8229C12.4271 15.9424 12.4719 16.0469 12.5614 16.1365C12.651 16.226 12.7555 16.2708 12.875 16.2708C12.9944 16.2708 13.0989 16.226 13.1885 16.1365C13.2781 16.0469 13.3229 15.9424 13.3229 15.8229V14.0312H15.1146C15.234 14.0312 15.3385 13.9865 15.4281 13.8969C15.5177 13.8073 15.5625 13.7028 15.5625 13.5833C15.5625 13.4639 15.5177 13.3594 15.4281 13.2698C15.3385 13.1802 15.234 13.1354 15.1146 13.1354H13.3229V11.3438C13.3229 11.2243 13.2781 11.1198 13.1885 11.0302C13.0989 10.9406 12.9944 10.8958 12.875 10.8958C12.7555 10.8958 12.651 10.9406 12.5614 11.0302C12.4719 11.1198 12.4271 11.2243 12.4271 11.3438V13.1354H10.6354C10.516 13.1354 10.4114 13.1802 10.3219 13.2698C10.2323 13.3594 10.1875 13.4639 10.1875 13.5833C10.1875 13.7028 10.2323 13.8073 10.3219 13.8969C10.4114 13.9865 10.516 14.0312 10.6354 14.0312H12.4271ZM12.875 18.0625C11.6357 18.0625 10.5794 17.6258 9.70597 16.7523C8.83253 15.8789 8.39581 14.8226 8.39581 13.5833C8.39581 12.3441 8.83253 11.2878 9.70597 10.4143C10.5794 9.54089 11.6357 9.10417 12.875 9.10417C14.1142 9.10417 15.1706 9.54089 16.044 10.4143C16.9174 11.2878 17.3541 12.3441 17.3541 13.5833C17.3541 14.8226 16.9174 15.8789 16.044 16.7523C15.1706 17.6258 14.1142 18.0625 12.875 18.0625ZM0.333313 14.4792V6.41667C0.333313 6.13299 0.396768 5.86424 0.523678 5.61042C0.650587 5.3566 0.826021 5.14757 1.04998 4.98333L6.42498 0.952083C6.58922 0.832639 6.76092 0.743056 6.94008 0.683333C7.11925 0.623611 7.30588 0.59375 7.49998 0.59375C7.69408 0.59375 7.88071 0.623611 8.05988 0.683333C8.23904 0.743056 8.41074 0.832639 8.57498 0.952083L13.9948 5.02813C14.0993 5.10278 14.1777 5.19983 14.2299 5.31927C14.2822 5.43872 14.3083 5.56563 14.3083 5.7C14.3083 5.95382 14.2225 6.16658 14.0508 6.33828C13.8791 6.50998 13.6663 6.59583 13.4125 6.59583C13.308 6.59583 13.2109 6.5809 13.1213 6.55104C13.0318 6.52118 12.9496 6.47639 12.875 6.41667L7.49998 2.38542L2.12498 6.41667V14.4792H5.70831C5.96213 14.4792 6.17489 14.565 6.34659 14.7367C6.5183 14.9084 6.60415 15.1212 6.60415 15.375C6.60415 15.6288 6.5183 15.8416 6.34659 16.0133C6.17489 16.185 5.96213 16.2708 5.70831 16.2708H2.12498C1.63227 16.2708 1.21048 16.0954 0.859615 15.7445C0.508747 15.3937 0.333313 14.9719 0.333313 14.4792Z" fill="#00A481"/>
</svg>
