<svg width="22" height="22" viewBox="0 0 22 22" fill="none" xmlns="http://www.w3.org/2000/svg">
<mask id="mask0_1287_5879" style="mask-type:alpha" maskUnits="userSpaceOnUse" x="0" y="0" width="22" height="22">
<rect x="0.25" y="0.25" width="21.5" height="21.5" fill="#D9D9D9"/>
</mask>
<g mask="url(#mask0_1287_5879)">
<path d="M10.9998 19.9585C9.7606 19.9585 8.59602 19.7233 7.50609 19.253C6.41616 18.7827 5.46807 18.1444 4.66182 17.3382C3.85557 16.5319 3.21729 15.5838 2.74697 14.4939C2.27666 13.404 2.0415 12.2394 2.0415 11.0002C2.0415 9.76093 2.27666 8.59634 2.74697 7.50641C3.21729 6.41648 3.85557 5.46839 4.66182 4.66214C5.46807 3.85589 6.41616 3.21761 7.50609 2.7473C8.59602 2.27699 9.7606 2.04183 10.9998 2.04183C11.4925 2.04183 11.9778 2.07916 12.4556 2.15381C12.9333 2.22846 13.3962 2.34044 13.8441 2.48975C14.1875 2.60919 14.404 2.78462 14.4936 3.01605C14.5832 3.24747 14.5906 3.47516 14.516 3.69912C14.4413 3.92308 14.3032 4.09851 14.1017 4.22542C13.9001 4.35233 13.6724 4.36353 13.4186 4.25902C13.0304 4.12464 12.6385 4.02013 12.2428 3.94548C11.8471 3.87082 11.4328 3.8335 10.9998 3.8335C9.01407 3.8335 7.32319 4.5315 5.92718 5.92751C4.53117 7.32351 3.83317 9.0144 3.83317 11.0002C3.83317 12.9859 4.53117 14.6768 5.92718 16.0728C7.32319 17.4688 9.01407 18.1668 10.9998 18.1668C12.9856 18.1668 14.6765 17.4688 16.0725 16.0728C17.4685 14.6768 18.1665 12.9859 18.1665 11.0002C18.1665 10.7314 18.1516 10.4627 18.1217 10.1939C18.0919 9.92516 18.0471 9.66388 17.9873 9.41006C17.9127 9.12638 17.95 8.89495 18.0993 8.71579C18.2486 8.53662 18.4353 8.42464 18.6592 8.37985C18.8832 8.33506 19.1034 8.36865 19.3199 8.48063C19.5364 8.59261 19.682 8.80537 19.7566 9.11891C19.8313 9.41752 19.8835 9.7236 19.9134 10.0371C19.9432 10.3507 19.9582 10.6717 19.9582 11.0002C19.9582 12.2394 19.723 13.404 19.2527 14.4939C18.7824 15.5838 18.1441 16.5319 17.3379 17.3382C16.5316 18.1444 15.5835 18.7827 14.4936 19.253C13.4037 19.7233 12.2391 19.9585 10.9998 19.9585ZM18.1665 4.72933H17.2707C17.0169 4.72933 16.8041 4.64348 16.6324 4.47178C16.4607 4.30008 16.3748 4.08732 16.3748 3.8335C16.3748 3.57968 16.4607 3.36692 16.6324 3.19521C16.8041 3.02351 17.0169 2.93766 17.2707 2.93766H18.1665V2.04183C18.1665 1.78801 18.2524 1.57525 18.4241 1.40355C18.5958 1.23185 18.8085 1.146 19.0623 1.146C19.3162 1.146 19.5289 1.23185 19.7006 1.40355C19.8723 1.57525 19.9582 1.78801 19.9582 2.04183V2.93766H20.854C21.1078 2.93766 21.3206 3.02351 21.4923 3.19521C21.664 3.36692 21.7498 3.57968 21.7498 3.8335C21.7498 4.08732 21.664 4.30008 21.4923 4.47178C21.3206 4.64348 21.1078 4.72933 20.854 4.72933H19.9582V5.62516C19.9582 5.87898 19.8723 6.09174 19.7006 6.26344C19.5289 6.43515 19.3162 6.521 19.0623 6.521C18.8085 6.521 18.5958 6.43515 18.4241 6.26344C18.2524 6.09174 18.1665 5.87898 18.1665 5.62516V4.72933ZM14.1353 10.1043C14.5085 10.1043 14.8258 9.97369 15.0871 9.7124C15.3484 9.45112 15.479 9.13384 15.479 8.76058C15.479 8.38732 15.3484 8.07004 15.0871 7.80876C14.8258 7.54747 14.5085 7.41683 14.1353 7.41683C13.762 7.41683 13.4447 7.54747 13.1834 7.80876C12.9221 8.07004 12.7915 8.38732 12.7915 8.76058C12.7915 9.13384 12.9221 9.45112 13.1834 9.7124C13.4447 9.97369 13.762 10.1043 14.1353 10.1043ZM7.86442 10.1043C8.23768 10.1043 8.55496 9.97369 8.81624 9.7124C9.07753 9.45112 9.20817 9.13384 9.20817 8.76058C9.20817 8.38732 9.07753 8.07004 8.81624 7.80876C8.55496 7.54747 8.23768 7.41683 7.86442 7.41683C7.49116 7.41683 7.17388 7.54747 6.9126 7.80876C6.65131 8.07004 6.52067 8.38732 6.52067 8.76058C6.52067 9.13384 6.65131 9.45112 6.9126 9.7124C7.17388 9.97369 7.49116 10.1043 7.86442 10.1043ZM10.9998 15.9272C11.8658 15.9272 12.6646 15.7182 13.3962 15.3002C14.1278 14.8821 14.7175 14.3147 15.1655 13.5981C15.255 13.4189 15.2476 13.2397 15.1431 13.0606C15.0386 12.8814 14.8818 12.7918 14.6728 12.7918H7.32692C7.11789 12.7918 6.96112 12.8814 6.85661 13.0606C6.75209 13.2397 6.74463 13.4189 6.83421 13.5981C7.28213 14.3147 7.87562 14.8821 8.61468 15.3002C9.35374 15.7182 10.1488 15.9272 10.9998 15.9272Z" fill="#00A481"/>
</g>
</svg>
