<svg width="17" height="30" viewBox="0 0 17 30" fill="none" xmlns="http://www.w3.org/2000/svg">
<path d="M13.9435 15L0.763294 2.14083C0.511314 1.89528 0.387033 1.6 0.390449 1.255C0.393581 0.909722 0.521137 0.614305 0.773116 0.368749C1.02481 0.122916 1.32761 0 1.68152 0C2.03515 0 2.33795 0.122916 2.58993 0.368749L15.6356 13.1058C15.9115 13.375 16.113 13.6751 16.2399 14.0063C16.3669 14.3376 16.4304 14.6689 16.4304 15C16.4304 15.3311 16.3669 15.6624 16.2399 15.9938C16.113 16.3249 15.9115 16.625 15.6356 16.8942L2.57968 29.6313C2.32798 29.8771 2.02689 29.9983 1.6764 29.995C1.32591 29.9919 1.02481 29.8675 0.773116 29.6217C0.521137 29.3761 0.395148 29.0807 0.395148 28.7354C0.395148 28.3904 0.521137 28.095 0.773116 27.8492L13.9435 15Z" fill="#1C1B1F"/>
</svg>
