<svg width="16" height="16" viewBox="0 0 16 16" fill="none" xmlns="http://www.w3.org/2000/svg">
<path d="M1.6665 4.04167H14.3332M6.4165 7.20833V11.9583M9.58317 7.20833V11.9583M2.45817 4.04167L3.24984 13.5417C3.24984 13.9616 3.41665 14.3643 3.71358 14.6613C4.01052 14.9582 4.41324 15.125 4.83317 15.125H11.1665C11.5864 15.125 11.9892 14.9582 12.2861 14.6613C12.583 14.3643 12.7498 13.9616 12.7498 13.5417L13.5415 4.04167M5.62484 4.04167V1.66667C5.62484 1.4567 5.70824 1.25534 5.85671 1.10687C6.00518 0.958407 6.20654 0.875 6.4165 0.875H9.58317C9.79313 0.875 9.9945 0.958407 10.143 1.10687C10.2914 1.25534 10.3748 1.4567 10.3748 1.66667V4.04167" stroke="#00A481" stroke-width="1.75" stroke-linecap="round" stroke-linejoin="round"/>
</svg>
