<svg width="26" height="26" viewBox="0 0 26 26" fill="none" xmlns="http://www.w3.org/2000/svg">
<mask id="mask0_994_6456" style="mask-type:luminance" maskUnits="userSpaceOnUse" x="0" y="0" width="27" height="26">
<path d="M0.94043 0.63916H26.0018V25.7005H0.94043V0.63916Z" fill="white"/>
</mask>
<g mask="url(#mask0_994_6456)">
<path d="M23.0695 3.96704H3.87795C3.62061 3.96689 3.36574 4.01745 3.12795 4.11583C2.89016 4.2142 2.67411 4.35846 2.49209 4.54037C2.31008 4.72228 2.16567 4.93827 2.06716 5.176C1.96865 5.41373 1.91797 5.66854 1.91797 5.92587V7.85661L12.3033 15.5818C12.6412 15.833 13.051 15.9687 13.4721 15.9687C13.8931 15.9687 14.3029 15.833 14.6408 15.5818L25.0261 7.85661V5.92587C25.0263 5.66878 24.9758 5.41418 24.8776 5.17661C24.7793 4.93903 24.6352 4.72313 24.4535 4.54124C24.2718 4.35934 24.0561 4.21501 23.8186 4.11649C23.5812 4.01797 23.3266 3.96719 23.0695 3.96704Z" stroke="#00A481" stroke-width="1.5" stroke-miterlimit="10"/>
<path d="M24.0485 12.2468V20.4204C24.0482 20.6799 23.945 20.9287 23.7615 21.1122C23.578 21.2958 23.3292 21.399 23.0697 21.3993H3.87806C3.61855 21.399 3.36974 21.2958 3.18623 21.1122C3.00273 20.9287 2.89954 20.6799 2.89924 20.4204V12.2491L0.94043 10.7881V20.4204C0.941322 21.1993 1.25109 21.946 1.80182 22.4967C2.35255 23.0474 3.09921 23.3572 3.87806 23.3581H23.0697C23.8486 23.3572 24.5952 23.0474 25.146 22.4967C25.6967 21.946 26.0065 21.1993 26.0074 20.4204V10.7926L24.0485 12.2468Z" fill="#00A481"/>
</g>
</svg>
