<svg width="16" height="30" viewBox="0 0 16 30" fill="none" xmlns="http://www.w3.org/2000/svg">
<path d="M6.01292 7.33333C6.01292 6.73667 6.2227 6.22856 6.64225 5.809C7.06181 5.38944 7.56992 5.17967 8.16659 5.17967C8.76325 5.17967 9.27136 5.38944 9.69092 5.809C10.1105 6.22856 10.3203 6.73667 10.3203 7.33333C10.3203 7.93 10.1105 8.43811 9.69092 8.85767C9.27136 9.27722 8.76325 9.487 8.16659 9.487C7.56992 9.487 7.06181 9.27722 6.64225 8.85767C6.2227 8.43811 6.01292 7.93 6.01292 7.33333ZM8.16659 29.1923L3.06425 24.064L4.92292 21.5897L3.03859 19.0513L4.83325 16.4487V13.8563C3.65036 13.2479 2.68803 12.3659 1.94625 11.2103C1.20425 10.0548 0.833252 8.76244 0.833252 7.33333C0.833252 5.29911 1.54692 3.56833 2.97425 2.141C4.40159 0.713666 6.13236 0 8.16659 0C10.2008 0 11.9316 0.713666 13.3589 2.141C14.7863 3.56833 15.4999 5.29911 15.4999 7.33333C15.4999 8.76244 15.1311 10.0548 14.3936 11.2103C13.6558 12.3659 12.6913 13.2479 11.4999 13.8563V25.859L8.16659 29.1923ZM2.83325 7.33333C2.83325 8.612 3.21959 9.71922 3.99225 10.655C4.76492 11.591 5.71192 12.2018 6.83325 12.4873V17.077L5.50492 18.9973L7.41025 21.6027L5.67925 23.8667L8.16659 26.354L9.49992 25.0207V12.4873C10.6213 12.2018 11.5683 11.591 12.3409 10.655C13.1136 9.71922 13.4999 8.612 13.4999 7.33333C13.4999 5.86667 12.9777 4.61111 11.9333 3.56667C10.8888 2.52222 9.63325 2 8.16659 2C6.69992 2 5.44436 2.52222 4.39992 3.56667C3.35547 4.61111 2.83325 5.86667 2.83325 7.33333Z" fill="#00A481"/>
</svg>
