<svg width="23" height="22" viewBox="0 0 23 22" fill="none" xmlns="http://www.w3.org/2000/svg">
<mask id="mask0_1032_13198" style="mask-type:alpha" maskUnits="userSpaceOnUse" x="0" y="0" width="23" height="22">
<rect x="0.75" y="0.25" width="21.5" height="21.5" fill="#D9D9D9"/>
</mask>
<g mask="url(#mask0_1032_13198)">
<path d="M16.987 9.87986H14.9714C14.781 9.87986 14.6215 9.81543 14.4928 9.68658C14.3639 9.55773 14.2995 9.39813 14.2995 9.20776C14.2995 9.01725 14.3639 8.85771 14.4928 8.72916C14.6215 8.60046 14.781 8.53611 14.9714 8.53611H16.987V6.52048C16.987 6.33012 17.0514 6.17059 17.1803 6.04189C17.3091 5.91303 17.4687 5.84861 17.6591 5.84861C17.8496 5.84861 18.0091 5.91303 18.1377 6.04189C18.2664 6.17059 18.3307 6.33012 18.3307 6.52048V8.53611H20.3464C20.5367 8.53611 20.6963 8.60053 20.825 8.72939C20.9538 8.85824 21.0182 9.01784 21.0182 9.20821C21.0182 9.39872 20.9538 9.55826 20.825 9.68681C20.6963 9.81551 20.5367 9.87986 20.3464 9.87986H18.3307V11.8955C18.3307 12.0858 18.2663 12.2454 18.1375 12.3741C18.0086 12.5029 17.849 12.5674 17.6586 12.5674C17.4681 12.5674 17.3086 12.5029 17.18 12.3741C17.0513 12.2454 16.987 12.0858 16.987 11.8955V9.87986ZM8.8125 10.724C7.95026 10.724 7.21217 10.417 6.59822 9.80304C5.98413 9.18895 5.67708 8.45078 5.67708 7.58854C5.67708 6.7263 5.98413 5.98821 6.59822 5.37427C7.21217 4.76017 7.95026 4.45312 8.8125 4.45312C9.67474 4.45312 10.4128 4.76017 11.0268 5.37427C11.6409 5.98821 11.9479 6.7263 11.9479 7.58854C11.9479 8.45078 11.6409 9.18895 11.0268 9.80304C10.4128 10.417 9.67474 10.724 8.8125 10.724ZM2.09375 16.1852V15.5545C2.09375 15.1159 2.2129 14.7096 2.45119 14.3357C2.68948 13.9619 3.00795 13.6745 3.40659 13.4735C4.29198 13.0395 5.1852 12.7139 6.08626 12.4968C6.98731 12.2797 7.89606 12.1712 8.8125 12.1712C9.72894 12.1712 10.6377 12.2797 11.5387 12.4968C12.4398 12.7139 13.333 13.0395 14.2184 13.4735C14.6171 13.6745 14.9355 13.9619 15.1738 14.3357C15.4121 14.7096 15.5312 15.1159 15.5312 15.5545V16.1852C15.5312 16.5629 15.3989 16.8842 15.1342 17.1491C14.8695 17.4138 14.5481 17.5462 14.1703 17.5462H3.45474C3.07685 17.5462 2.75555 17.4138 2.49083 17.1491C2.22611 16.8842 2.09375 16.5629 2.09375 16.1852ZM3.4375 16.2024H14.1875V15.5545C14.1875 15.3731 14.1349 15.2051 14.0298 15.0506C13.9247 14.8962 13.7821 14.7702 13.6018 14.6726C12.8299 14.2924 12.0429 14.0044 11.2409 13.8085C10.4387 13.6128 9.6292 13.5149 8.8125 13.5149C7.9958 13.5149 7.18634 13.6128 6.38412 13.8085C5.58205 14.0044 4.79506 14.2924 4.02315 14.6726C3.84294 14.7702 3.70028 14.8962 3.59517 15.0506C3.49006 15.2051 3.4375 15.3731 3.4375 15.5545V16.2024ZM8.8125 9.38021C9.30521 9.38021 9.727 9.20477 10.0779 8.85391C10.4287 8.50304 10.6042 8.08125 10.6042 7.58854C10.6042 7.09583 10.4287 6.67405 10.0779 6.32318C9.727 5.97231 9.30521 5.79688 8.8125 5.79688C8.31979 5.79688 7.898 5.97231 7.54714 6.32318C7.19627 6.67405 7.02083 7.09583 7.02083 7.58854C7.02083 8.08125 7.19627 8.50304 7.54714 8.85391C7.898 9.20477 8.31979 9.38021 8.8125 9.38021Z" fill="#00A481"/>
</g>
</svg>
