<svg width="24" height="24" viewBox="0 0 24 24" fill="none" xmlns="http://www.w3.org/2000/svg">
<mask id="mask0_855_16087" style="mask-type:alpha" maskUnits="userSpaceOnUse" x="0" y="0" width="24" height="24">
<rect width="24" height="24" fill="#D9D9D9"/>
</mask>
<g mask="url(#mask0_855_16087)">
<path d="M18.5837 21L12.454 14.7C11.9675 15.1 11.408 15.4167 10.7756 15.65C10.1432 15.8833 9.47021 16 8.7567 16C6.98913 16 5.49318 15.3708 4.26886 14.1125C3.04454 12.8542 2.43237 11.3167 2.43237 9.5C2.43237 7.68333 3.04454 6.14583 4.26886 4.8875C5.49318 3.62917 6.98913 3 8.7567 3C10.5243 3 12.0202 3.62917 13.2445 4.8875C14.4689 6.14583 15.081 7.68333 15.081 9.5C15.081 10.2333 14.9675 10.925 14.7405 11.575C14.5135 12.225 14.2053 12.8 13.8162 13.3L19.9459 19.6L18.5837 21ZM8.7567 14C9.97291 14 11.0067 13.5625 11.858 12.6875C12.7094 11.8125 13.1351 10.75 13.1351 9.5C13.1351 8.25 12.7094 7.1875 11.858 6.3125C11.0067 5.4375 9.97291 5 8.7567 5C7.54048 5 6.5067 5.4375 5.65535 6.3125C4.80399 7.1875 4.37832 8.25 4.37832 9.5C4.37832 10.75 4.80399 11.8125 5.65535 12.6875C6.5067 13.5625 7.54048 14 8.7567 14Z" fill="#00A481"/>
</g>
</svg>
