<svg width="31" height="30" viewBox="0 0 31 30" fill="none" xmlns="http://www.w3.org/2000/svg">
<mask id="mask0_990_5216" style="mask-type:luminance" maskUnits="userSpaceOnUse" x="0" y="0" width="32" height="30">
<path d="M0.5 0.994141H30.5034V29.2003H0.5V0.994141Z" fill="white" stroke="white"/>
</mask>
<g mask="url(#mask0_990_5216)">
<path d="M21.1781 18.2378V26.4037C21.1781 27.0498 20.9056 27.6694 20.4207 28.1263C19.9357 28.5831 19.278 28.8397 18.5922 28.8397H6.23387C5.54803 28.8397 4.89029 28.5831 4.40534 28.1263C3.92038 27.6694 3.64795 27.0498 3.64795 26.4037V3.78663C3.64795 3.14056 3.92038 2.52095 4.40534 2.06411C4.89029 1.60726 5.54803 1.35059 6.23387 1.35059H18.5922C19.278 1.35059 19.9357 1.60726 20.4207 2.06411C20.9056 2.52095 21.1781 3.14056 21.1781 3.78663V8.95074" stroke="#00A481" stroke-width="1.5" stroke-miterlimit="10"/>
<path d="M15.1902 3.90841H9.62908C9.40785 3.90841 9.19568 3.82562 9.03924 3.67825C8.88281 3.53089 8.79492 3.33101 8.79492 3.1226V1.35059H16.0244V3.1226C16.0244 3.33101 15.9365 3.53089 15.7801 3.67825C15.6237 3.82562 15.4115 3.90841 15.1902 3.90841Z" stroke="#00A481" stroke-width="1.5" stroke-miterlimit="10"/>
<path d="M14.1958 25.5439H10.6353" stroke="#00A481" stroke-width="1.5" stroke-miterlimit="10" stroke-linecap="round"/>
<path d="M12.735 19.7368L15.8131 18.2726C15.8476 18.2496 15.8889 18.2372 15.9312 18.2372H24.1339C24.992 18.2372 25.8148 17.9161 26.4216 17.3446C27.0283 16.773 27.3691 15.9979 27.3691 15.1896V11.9979C27.3691 11.1896 27.0283 10.4144 26.4216 9.84283C25.8148 9.27129 24.992 8.9502 24.1339 8.9502H15.6532C14.7951 8.9502 13.9723 9.27129 13.3655 9.84283C12.7588 10.4144 12.418 11.1896 12.418 11.9979V19.577C12.4181 19.6117 12.4283 19.6458 12.4473 19.6755C12.4663 19.7052 12.4934 19.7296 12.5259 19.7459C12.5584 19.7623 12.595 19.7701 12.6318 19.7685C12.6686 19.7669 12.7042 19.756 12.735 19.7368Z" stroke="#00A481" stroke-width="1.5" stroke-miterlimit="10" stroke-linecap="round"/>
<path d="M23.8629 12.009H15.916" stroke="#00A481" stroke-width="1.5" stroke-miterlimit="10" stroke-linecap="round"/>
<path d="M23.8626 14.9326H19.8892" stroke="#00A481" stroke-width="1.5" stroke-miterlimit="10" stroke-linecap="round"/>
</g>
</svg>
