<svg width="32" height="31" viewBox="0 0 32 31" fill="none" xmlns="http://www.w3.org/2000/svg">
<path d="M25.4276 11.1953C24.1042 11.1953 22.835 11.721 21.8992 12.6568C20.9634 13.5926 20.4377 14.8618 20.4377 16.1852C20.444 16.7327 20.5413 17.2754 20.7256 17.7909L15.1919 23.5127V26.4209H19.0213L19.0507 26.4081L20.3097 25.1415V23.862H21.5956L22.8687 22.5825V21.3031H24.1532L24.3912 21.0638C25.0758 21.2109 25.7837 21.2122 26.4689 21.0677C27.154 20.9232 27.8011 20.6362 28.368 20.2252C28.935 19.8142 29.409 19.2885 29.7594 18.6822C30.1098 18.076 30.3287 17.4028 30.4019 16.7064C30.475 16.01 30.4007 15.306 30.1839 14.6402C29.9671 13.9744 29.6126 13.3616 29.1434 12.8418C28.6742 12.322 28.1009 11.9068 27.4607 11.6231C26.8205 11.3394 26.1278 11.1937 25.4276 11.1953ZM25.4276 20.0236C24.8877 20.0221 24.3542 19.9056 23.8628 19.682L23.5148 20.0236H21.5892V22.5825H19.0303V24.7243L18.5083 25.1415H16.4714V23.9823L22.1253 18.1083C21.7781 17.5266 21.593 16.8626 21.5892 16.1852C21.5892 15.4261 21.8143 14.684 22.2361 14.0527C22.6579 13.4215 23.2573 12.9295 23.9587 12.639C24.6601 12.3485 25.4318 12.2725 26.1764 12.4206C26.921 12.5687 27.6049 12.9343 28.1417 13.4711C28.6785 14.0079 29.0441 14.6918 29.1922 15.4364C29.3403 16.181 29.2643 16.9527 28.9738 17.6541C28.6833 18.3555 28.1913 18.955 27.5601 19.3767C26.9289 19.7985 26.1867 20.0236 25.4276 20.0236ZM26.0673 13.6263C25.6877 13.6263 25.3167 13.7389 25.0011 13.9497C24.6855 14.1606 24.4395 14.4604 24.2942 14.8111C24.149 15.1617 24.1109 15.5476 24.185 15.9199C24.2591 16.2922 24.4418 16.6342 24.7102 16.9026C24.9786 17.171 25.3206 17.3538 25.6929 17.4278C26.0652 17.5019 26.4511 17.4639 26.8018 17.3186C27.1524 17.1733 27.4522 16.9273 27.6631 16.6117C27.874 16.2961 27.9865 15.9251 27.9865 15.5455C27.9865 15.0365 27.7843 14.5483 27.4244 14.1884C27.0645 13.8285 26.5763 13.6263 26.0673 13.6263ZM26.0673 16.1852C25.9408 16.1852 25.8171 16.1477 25.7119 16.0774C25.6067 16.0071 25.5247 15.9072 25.4763 15.7903C25.4279 15.6734 25.4152 15.5448 25.4399 15.4207C25.4646 15.2966 25.5255 15.1826 25.615 15.0931C25.7044 15.0037 25.8184 14.9427 25.9425 14.9181C26.0666 14.8934 26.1952 14.906 26.3121 14.9545C26.429 15.0029 26.5289 15.0849 26.5992 15.1901C26.6695 15.2953 26.707 15.419 26.707 15.5455C26.7067 15.7151 26.6392 15.8776 26.5193 15.9975C26.3994 16.1174 26.2369 16.1849 26.0673 16.1852Z" fill="#00A481"/>
<mask id="mask0_851_14883" style="mask-type:alpha" maskUnits="userSpaceOnUse" x="0" y="0" width="28" height="27">
<path d="M0 0.959473L27.1515 2.5588L13.2525 26.0689L0 26.5487V0.959473Z" fill="#D9D9D9"/>
</mask>
<g mask="url(#mask0_851_14883)">
<path d="M24.0122 17.1867C23.1784 16.4774 22.241 15.8971 21.2316 15.4653C21.1219 15.4131 21.0027 15.3832 20.8811 15.3775C20.7595 15.3717 20.6379 15.3901 20.5237 15.4317C20.4094 15.4732 20.3047 15.537 20.2159 15.6193C20.127 15.7016 20.0558 15.8008 20.0064 15.9108C19.9569 16.0208 19.9304 16.1396 19.9282 16.2599C19.9261 16.3803 19.9484 16.4999 19.9939 16.6116C20.0393 16.7233 20.107 16.8248 20.1929 16.9102C20.2787 16.9955 20.381 17.0629 20.4938 17.1085C21.3348 17.4664 22.1164 17.9479 22.8121 18.5367C23.1987 18.8736 23.5083 19.2882 23.72 19.7528C23.9317 20.2175 24.0408 20.7214 24.0399 21.2311V22.8941C24.0396 23.1325 23.9437 23.3611 23.7732 23.5298C23.6027 23.6984 23.3716 23.7932 23.1305 23.7935H14.2223H5.3132C5.07208 23.7932 4.84092 23.6984 4.67043 23.5298C4.49994 23.3611 4.40404 23.1325 4.40379 22.8941V21.2292C4.40348 20.7192 4.51327 20.215 4.72583 19.7504C4.93839 19.2857 5.24882 18.8713 5.63635 18.5348C6.55528 17.7363 9.23107 15.8801 14.2261 15.8801C15.8221 15.8814 17.3667 15.3222 18.5845 14.3022C19.8024 13.2821 20.6144 11.8674 20.8758 10.3104C21.1372 8.75332 20.8309 7.15507 20.0117 5.80053C19.1924 4.44599 17.9134 3.4232 16.4026 2.9145C14.8918 2.40579 13.2474 2.44423 11.7626 3.02297C10.2778 3.6017 9.04905 4.68311 8.29542 6.07442C7.54179 7.46573 7.31225 9.07651 7.64772 10.6196C7.9832 12.1627 8.86188 13.5379 10.1271 14.4999C8.02972 14.9049 6.07041 15.8293 4.43239 17.1867C3.85189 17.6921 3.38695 18.3141 3.06856 19.0111C2.75018 19.7082 2.58565 20.4643 2.58594 21.2292V22.8922C2.58669 23.6073 2.87427 24.2929 3.38557 24.7986C3.89687 25.3042 4.59011 25.5886 5.3132 25.5894H14.2223H23.1314C23.8545 25.5886 24.5477 25.3042 25.059 24.7986C25.5703 24.2929 25.8579 23.6073 25.8587 22.8922V21.2292C25.859 20.4643 25.6944 19.7082 25.376 19.0111C25.0577 18.3141 24.5927 17.6921 24.0122 17.1867ZM9.31305 9.22711C9.31305 8.26686 9.60097 7.32817 10.1404 6.52974C10.6798 5.73132 11.4466 5.10903 12.3436 4.74155C13.2407 4.37408 14.2277 4.27793 15.18 4.46527C16.1324 4.6526 17.0071 5.11501 17.6937 5.79401C18.3802 6.47302 18.8478 7.33812 19.0372 8.27992C19.2267 9.22173 19.1294 10.1979 18.7579 11.0851C18.3863 11.9723 17.7571 12.7305 16.9497 13.264C16.1424 13.7975 15.1933 14.0822 14.2223 14.0822C12.9208 14.0808 11.6729 13.5687 10.7526 12.6586C9.83227 11.7484 9.31456 10.5143 9.31305 9.22711Z" fill="#00A481"/>
</g>
</svg>
