<svg width="32" height="32" viewBox="0 0 32 32" fill="none" xmlns="http://www.w3.org/2000/svg">
<path d="M20.8685 19.1255C20.091 18.4568 19.2168 17.9095 18.2756 17.5024C18.1733 17.4532 18.0621 17.425 17.9487 17.4196C17.8353 17.4142 17.722 17.4315 17.6155 17.4707C17.5089 17.5099 17.4113 17.5701 17.3285 17.6477C17.2456 17.7253 17.1792 17.8187 17.1331 17.9225C17.087 18.0262 17.0622 18.1382 17.0602 18.2517C17.0582 18.3652 17.0791 18.4779 17.1214 18.5832C17.1638 18.6886 17.2269 18.7843 17.307 18.8648C17.3871 18.9452 17.4825 19.0088 17.5876 19.0517C18.3719 19.3892 19.1007 19.8432 19.7494 20.3984C20.1099 20.716 20.3985 21.107 20.596 21.545C20.7934 21.9831 20.8951 22.4583 20.8942 22.9388V24.5068C20.894 24.7317 20.8046 24.9472 20.6456 25.1062C20.4866 25.2652 20.2711 25.3546 20.0462 25.3548H3.43203C3.2072 25.3546 2.99164 25.2652 2.83266 25.1062C2.67368 24.9472 2.58426 24.7317 2.58403 24.5068V22.937C2.58373 22.4562 2.68612 21.9808 2.88432 21.5427C3.08253 21.1046 3.372 20.7138 3.73336 20.3966C4.59025 19.6437 7.08536 17.8935 11.7431 17.8935C13.2313 17.8948 14.6716 17.3675 15.8073 16.4057C16.9429 15.4439 17.7001 14.1101 17.9438 12.642C18.1876 11.1739 17.902 9.66693 17.138 8.38977C16.3741 7.11261 15.1814 6.14825 13.7726 5.66861C12.3639 5.18896 10.8305 5.22521 9.44596 5.77088C8.06141 6.31655 6.91563 7.33619 6.21289 8.64801C5.51014 9.95984 5.2961 11.4786 5.60892 12.9336C5.92175 14.3885 6.7411 15.6851 7.92092 16.5922C5.96513 16.9741 4.13812 17.8457 2.61069 19.1255C2.06939 19.602 1.63584 20.1884 1.33896 20.8457C1.04207 21.5029 0.888646 22.2159 0.888916 22.937V24.505C0.889622 25.1793 1.15778 25.8257 1.63456 26.3025C2.11133 26.7793 2.75777 27.0475 3.43203 27.0482H20.0471C20.7214 27.0475 21.3678 26.7793 21.8446 26.3025C22.3214 25.8257 22.5895 25.1793 22.5902 24.505V22.937C22.5905 22.2159 22.4371 21.5029 22.1402 20.8457C21.8433 20.1884 21.4098 19.602 20.8685 19.1255ZM7.16181 11.6206C7.16181 10.7152 7.43029 9.83014 7.9333 9.07733C8.43631 8.32452 9.15126 7.73777 9.98774 7.39129C10.8242 7.04481 11.7447 6.95415 12.6327 7.13079C13.5207 7.30742 14.3363 7.74341 14.9766 8.38363C15.6168 9.02384 16.0528 9.83952 16.2294 10.7275C16.406 11.6155 16.3154 12.536 15.9689 13.3724C15.6224 14.2089 15.0357 14.9239 14.2829 15.4269C13.53 15.9299 12.645 16.1984 11.7396 16.1984C10.5259 16.197 9.36236 15.7142 8.50416 14.856C7.64597 13.9978 7.16322 12.8343 7.16181 11.6206Z" fill="#00A481"/>
<mask id="mask0_851_14862" style="mask-type:alpha" maskUnits="userSpaceOnUse" x="0" y="0" width="32" height="32">
<rect width="32" height="32" fill="#D9D9D9"/>
</mask>
<g mask="url(#mask0_851_14862)">
<path d="M27.9997 26.667H24.5997C24.8442 26.267 25.0275 25.8392 25.1497 25.3837C25.2719 24.9281 25.3331 24.467 25.3331 24.0004V22.667C25.3331 21.6892 25.0608 20.7504 24.5164 19.8504C23.9719 18.9504 23.1997 18.1781 22.1997 17.5337C23.3331 17.667 24.3997 17.8948 25.3997 18.217C26.3997 18.5392 27.3331 18.9337 28.1997 19.4004C28.9997 19.8448 29.6108 20.3392 30.0331 20.8837C30.4553 21.4281 30.6664 22.0226 30.6664 22.667V24.0004C30.6664 24.7337 30.4053 25.3615 29.8831 25.8837C29.3608 26.4059 28.7331 26.667 27.9997 26.667Z" fill="#00A481"/>
</g>
<path d="M27.0597 8.68126C27.4648 10.0909 27.3096 11.4418 26.5943 12.7341C25.8789 14.0264 24.8165 14.8751 23.4068 15.2802C23.1719 15.3477 22.8652 15.4069 22.4868 15.4578C22.1084 15.5088 21.7925 15.536 21.5391 15.5394C21.9194 14.6903 22.1447 13.8047 22.215 12.8827C22.2853 11.9608 22.1916 11.0513 21.9338 10.1543C21.676 9.25724 21.2726 8.43675 20.7236 7.69279C20.1745 6.94883 19.5135 6.31798 18.7404 5.80024C19.0087 5.60752 19.2878 5.45219 19.5776 5.33422C19.8674 5.21626 20.1618 5.11432 20.4608 5.02839C21.8704 4.62331 23.2214 4.77845 24.5137 5.4938C25.8059 6.20916 26.6546 7.27164 27.0597 8.68126Z" fill="#00A481"/>
</svg>
