<svg width="32" height="32" viewBox="0 0 32 32" fill="none" xmlns="http://www.w3.org/2000/svg">
<mask id="mask0_851_14872" style="mask-type:alpha" maskUnits="userSpaceOnUse" x="-2" y="1" width="29" height="27">
<path d="M-1.34741 1L26.9473 2.66667L12.4631 27.1667L-1.34741 27.6667V1Z" fill="#D9D9D9"/>
</mask>
<g mask="url(#mask0_851_14872)">
<path d="M23.6758 17.9105C22.807 17.1714 21.83 16.5666 20.7781 16.1166C20.6638 16.0622 20.5396 16.0311 20.4129 16.0251C20.2861 16.0191 20.1595 16.0383 20.0404 16.0816C19.9213 16.1249 19.8123 16.1914 19.7197 16.2772C19.6271 16.3629 19.5528 16.4662 19.5013 16.5809C19.4498 16.6956 19.4221 16.8193 19.4199 16.9447C19.4177 17.0702 19.4409 17.1948 19.4883 17.3112C19.5357 17.4276 19.6062 17.5334 19.6957 17.6223C19.7852 17.7113 19.8918 17.7815 20.0092 17.829C20.8857 18.202 21.7002 18.7038 22.4252 19.3174C22.8281 19.6684 23.1507 20.1005 23.3713 20.5847C23.592 21.0689 23.7056 21.5941 23.7047 22.1252V23.8582C23.7044 24.1067 23.6045 24.3449 23.4268 24.5206C23.2491 24.6964 23.0082 24.7952 22.757 24.7954H13.4737H4.1895C3.93824 24.7952 3.69734 24.6964 3.51967 24.5206C3.342 24.3449 3.24207 24.1067 3.24181 23.8582V22.1232C3.24148 21.5917 3.3559 21.0663 3.57741 20.5821C3.79892 20.0979 4.12241 19.666 4.52626 19.3154C5.48389 18.4833 8.27234 16.5489 13.4777 16.5489C15.1409 16.5503 16.7505 15.9676 18.0196 14.9045C19.2888 13.8415 20.135 12.3673 20.4074 10.7447C20.6797 9.12204 20.3606 7.45649 19.5069 6.04492C18.6531 4.63335 17.3202 3.56749 15.7458 3.03737C14.1714 2.50725 12.4578 2.54731 10.9105 3.15041C9.36313 3.75351 8.08265 4.88045 7.29729 6.33034C6.51193 7.78023 6.27273 9.45884 6.62233 11.0669C6.97192 12.675 7.8876 14.108 9.20612 15.1106C7.0204 15.5327 4.9786 16.496 3.27161 17.9105C2.66666 18.4372 2.18215 19.0853 1.85036 19.8117C1.51857 20.5381 1.34711 21.3261 1.34741 22.1232V23.8562C1.3482 24.6015 1.64789 25.3159 2.18071 25.8429C2.71354 26.3698 3.43598 26.6662 4.1895 26.667H13.4737H22.758C23.5115 26.6662 24.2339 26.3698 24.7667 25.8429C25.2996 25.3159 25.5993 24.6015 25.6 23.8562V22.1232C25.6003 21.3261 25.4289 20.5381 25.0971 19.8117C24.7653 19.0853 24.2808 18.4372 23.6758 17.9105ZM8.35777 9.61578C8.35777 8.6151 8.65781 7.63688 9.21996 6.80484C9.78211 5.9728 10.5811 5.3243 11.5159 4.94136C12.4508 4.55841 13.4794 4.45821 14.4718 4.65344C15.4642 4.84866 16.3758 5.33054 17.0913 6.03813C17.8067 6.74572 18.294 7.64725 18.4914 8.62871C18.6888 9.61017 18.5875 10.6275 18.2003 11.552C17.813 12.4765 17.1573 13.2667 16.316 13.8227C15.4747 14.3786 14.4856 14.6753 13.4737 14.6753C12.1174 14.6738 10.817 14.1402 9.85794 13.1917C8.89885 12.2432 8.35935 10.9572 8.35777 9.61578Z" fill="#00A481"/>
</g>
<g clip-path="url(#clip0_851_14872)">
<path d="M27.8414 17.9813L22.1428 12.4279L22.12 12.407C21.82 12.1458 21.431 12.0008 21.0275 12C20.6239 11.9992 20.2343 12.1425 19.9331 12.4025L19.9104 12.4234L14.1604 17.9796C14.1072 18.0282 14.0646 18.0866 14.0351 18.1515C14.0057 18.2163 13.9899 18.2862 13.9888 18.357C13.9877 18.4279 14.0013 18.4982 14.0288 18.5638C14.0563 18.6295 14.097 18.6892 14.1487 18.7393C14.2004 18.7894 14.262 18.829 14.3297 18.8557C14.3975 18.8824 14.4701 18.8956 14.5433 18.8947C14.6164 18.8937 14.6886 18.8786 14.7556 18.8502C14.8226 18.8217 14.8831 18.7805 14.9334 18.7291L15.3674 18.3094V22.8817C15.368 23.4433 15.5986 23.9817 16.0087 24.3787C16.4188 24.7758 16.9749 24.9992 17.5549 24.9998H19.5236C19.6686 24.9998 19.8076 24.944 19.9101 24.8448C20.0126 24.7455 20.0702 24.6109 20.0702 24.4705V20.1547H21.9841V24.4705C21.984 24.5401 21.9981 24.6091 22.0256 24.6734C22.0531 24.7377 22.0934 24.7961 22.1442 24.8453C22.195 24.8945 22.2554 24.9336 22.3218 24.9602C22.3882 24.9868 22.4594 25.0004 22.5313 25.0003H24.4452C25.0252 24.9997 25.5812 24.7764 25.9913 24.3793C26.4014 23.9822 26.6321 23.4438 26.6327 22.8822C26.6281 22.7448 26.5684 22.6145 26.4664 22.5188C26.3643 22.4232 26.2278 22.3697 26.0858 22.3697C25.9438 22.3697 25.8073 22.4232 25.7053 22.5188C25.6032 22.6145 25.5436 22.7448 25.5389 22.8822C25.5386 23.163 25.4233 23.4322 25.2182 23.6308C25.0132 23.8293 24.7352 23.941 24.4452 23.9413H23.0784V19.6255C23.0784 19.4851 23.0209 19.3505 22.9184 19.2512C22.8158 19.152 22.6768 19.0962 22.5319 19.0962H19.5236C19.4518 19.0962 19.3807 19.1099 19.3143 19.1366C19.248 19.1632 19.1877 19.2022 19.1369 19.2514C19.0861 19.3006 19.0459 19.3591 19.0185 19.4233C18.991 19.4876 18.9769 19.5565 18.977 19.626V23.9419H17.5549C17.2649 23.9416 16.9869 23.8299 16.7818 23.6313C16.5768 23.4328 16.4614 23.1636 16.4611 22.8828V17.269C16.4611 17.2638 16.4611 17.2585 16.4611 17.2532L20.671 13.1865C20.7699 13.1048 20.8957 13.0599 21.0257 13.0599C21.1557 13.0599 21.2814 13.1048 21.3804 13.1865L25.5395 17.2402V20.2338C25.5442 20.3712 25.6038 20.5015 25.7059 20.5972C25.8079 20.6928 25.9444 20.7463 26.0864 20.7463C26.2284 20.7463 26.3649 20.6928 26.4669 20.5972C26.569 20.5015 26.6286 20.3712 26.6333 20.2338V18.3066L27.0655 18.728C27.1161 18.7773 27.1763 18.8165 27.2425 18.8433C27.3087 18.8701 27.3798 18.8841 27.4516 18.8843C27.5234 18.8845 27.5945 18.8711 27.661 18.8447C27.7274 18.8183 27.7878 18.7795 27.8387 18.7305C27.8897 18.6815 27.9302 18.6233 27.9579 18.5591C27.9856 18.495 27.9999 18.4262 28.0002 18.3567C28.0004 18.2872 27.9865 18.2183 27.9593 18.154C27.932 18.0896 27.892 18.0306 27.8414 17.9813Z" fill="#00A481"/>
</g>
<defs>
<clipPath id="clip0_851_14872">
<rect width="14" height="13" fill="white" transform="translate(14 12)"/>
</clipPath>
</defs>
</svg>
