<svg width="26" height="26" viewBox="0 0 26 26" fill="none" xmlns="http://www.w3.org/2000/svg">
<path d="M12.9365 0.00063096C10.7014 0.00111529 8.5046 0.58055 6.56004 1.68248C4.61547 2.78441 2.9895 4.37125 1.84054 6.28841C0.691584 8.20556 0.0588219 10.3876 0.00390689 12.622C-0.0510081 14.8565 0.473797 17.067 1.52719 19.0383L0.0345138 24.6201C-0.0109123 24.7894 -0.0106706 24.9677 0.0352144 25.1369C0.0810994 25.3061 0.170989 25.46 0.295732 25.5832C0.422482 25.7021 0.577063 25.7874 0.745313 25.8312C0.913562 25.8749 1.0901 25.8757 1.25875 25.8335L7.14519 24.1868C7.27643 24.1568 7.40024 24.1006 7.50912 24.0214C7.618 23.9422 7.70969 23.8418 7.77865 23.7262C7.84761 23.6106 7.8924 23.4821 7.91032 23.3487C7.92823 23.2153 7.9189 23.0796 7.88289 22.9499C7.84687 22.8202 7.78493 22.6991 7.70079 22.594C7.61665 22.489 7.51207 22.402 7.39338 22.3385C7.27468 22.275 7.14434 22.2362 7.01023 22.2245C6.87612 22.2128 6.74102 22.2284 6.61312 22.2704L2.40835 23.4489L3.55434 19.1623C3.62235 18.9074 3.58642 18.6359 3.45443 18.4075C2.24956 16.3203 1.76704 13.8939 2.0817 11.5045C2.39636 9.11511 3.49062 6.89632 5.19477 5.19222C6.89892 3.48811 9.11774 2.39392 11.5071 2.07933C13.8965 1.76473 16.3229 2.24732 18.4101 3.45225C20.4973 4.65718 22.1285 6.51711 23.0509 8.74361C23.9733 10.9701 24.1353 13.4387 23.5117 15.7667C22.8882 18.0946 21.5139 20.1518 19.6021 21.6191C17.6903 23.0864 15.3477 23.8819 12.9377 23.8822C12.3246 23.882 11.7126 23.8308 11.108 23.7294C10.9773 23.703 10.8426 23.7032 10.712 23.7299C10.5814 23.7566 10.4574 23.8093 10.3475 23.8848C10.2376 23.9604 10.144 24.0572 10.0723 24.1696C10.0005 24.2819 9.9521 24.4076 9.92984 24.5391C9.90758 24.6705 9.91195 24.8051 9.94271 24.9349C9.97346 25.0646 10.03 25.1869 10.1089 25.2943C10.1878 25.4018 10.2874 25.4924 10.402 25.5606C10.5166 25.6288 10.6437 25.6733 10.7758 25.6915C11.4918 25.8112 12.2166 25.8712 12.9425 25.8709C14.6517 25.8869 16.3471 25.5641 17.9308 24.9211C19.5145 24.2781 20.955 23.3276 22.1691 22.1245C23.3833 20.9215 24.347 19.4897 25.0045 17.912C25.6621 16.3343 26.0004 14.6419 26 12.9327C25.9996 11.2235 25.6605 9.53125 25.0022 7.95386C24.3439 6.37646 23.3796 4.94516 22.1649 3.74267C20.9502 2.54018 19.5092 1.59034 17.9252 0.94805C16.3412 0.305759 14.6457 -0.0162501 12.9365 0.00063096Z" fill="#00A481"/>
<path d="M11.9854 8.16953L10.825 6.57814C10.6514 6.33927 10.4281 6.14095 10.1704 5.99691C9.91262 5.85288 9.62667 5.76656 9.33229 5.74393C9.03789 5.72263 8.74233 5.76444 8.46539 5.86658C8.18846 5.96872 7.93653 6.12883 7.72646 6.33619L6.52871 7.53996C6.26228 7.81251 6.05403 8.13638 5.91663 8.49189C5.77922 8.84741 5.71553 9.22714 5.7294 9.60803C5.74024 11.3752 7.08365 13.5805 9.72351 16.1758C12.7979 19.1937 14.9226 20.1543 16.3804 20.1543C16.7453 20.1611 17.1077 20.0938 17.4458 19.9564C17.7839 19.819 18.0906 19.6144 18.3473 19.355L19.5403 18.1608C19.7489 17.9519 19.9099 17.7003 20.0121 17.4234C20.1143 17.1464 20.1554 16.8506 20.1326 16.5562C20.1097 16.2618 20.0234 15.9759 19.8796 15.718C19.7358 15.4602 19.5379 15.2365 19.2995 15.0623L17.7069 13.9019C17.4487 13.7148 17.1504 13.5904 16.8357 13.5386C16.5211 13.4868 16.1987 13.5089 15.894 13.6033L14.4086 14.0668C13.351 13.471 12.45 12.6327 11.7796 11.6207C11.9084 11.1862 12.1323 10.4711 12.2815 9.99083C12.3763 9.68621 12.3986 9.36363 12.3466 9.04886C12.2945 8.73409 12.1696 8.43585 11.9818 8.17796L11.9854 8.16953ZM13.2698 15.7593C13.7993 16.05 14.4219 16.1209 15.0033 15.9567L16.5369 15.5005L18.1367 16.744L16.9437 17.9381C16.4719 18.41 14.7071 18.2704 11.1187 14.7469C8.17185 11.8579 7.72526 10.2737 7.72164 9.58877C7.71268 9.47108 7.72746 9.35279 7.76509 9.24092C7.80273 9.12905 7.86246 9.02588 7.94073 8.93753L9.21793 7.74941L10.3868 9.38895C10.2327 9.87768 10.0064 10.6048 9.8788 11.0333C9.74218 11.4986 9.76981 11.9968 9.95705 12.4441C10.8117 13.7736 11.9419 14.9041 13.271 15.7593H13.2698Z" fill="#00A481"/>
</svg>
